<?xml version="1.0" standalone="no"?>
<!DOCTYPE svg PUBLIC "-//W3C//DTD SVG 20010904//EN"
 "http://www.w3.org/TR/2001/REC-SVG-20010904/DTD/svg10.dtd">
<svg version="1.0" xmlns="http://www.w3.org/2000/svg"
 width="512.000000pt" height="512.000000pt" viewBox="0 0 512.000000 512.000000"
 preserveAspectRatio="xMidYMid meet">
<metadata>
Created by potrace 1.11, written by Peter Selinger 2001-2013
</metadata>
<g transform="translate(0.000000,512.000000) scale(0.100000,-0.100000)"
fill="#000000" stroke="none">
<path d="M708 5018 c-7 -4 -47 -14 -88 -23 -71 -15 -79 -19 -147 -83 -72 -68
-160 -122 -199 -122 -12 0 -41 7 -64 15 -59 21 -102 19 -134 -6 -37 -29 -33
-40 13 -33 22 3 41 2 45 -4 3 -5 2 -31 -3 -56 -7 -39 -5 -50 10 -70 11 -13 19
-29 19 -34 0 -6 10 -12 22 -14 18 -2 24 -12 29 -43 4 -22 13 -53 20 -70 l13
-30 4 28 c5 36 24 43 56 20 30 -22 32 -30 8 -56 -16 -19 -16 -20 11 -15 35 7
35 -7 0 -26 -16 -8 -44 -30 -63 -50 -19 -19 -42 -36 -51 -36 -21 0 -80 -29
-100 -49 -9 -9 -28 -26 -43 -38 -23 -21 -36 -53 -20 -53 4 0 22 14 41 30 48
42 57 39 49 -17 -3 -25 -8 -49 -11 -51 -2 -3 -13 6 -24 19 -31 37 -25 13 10
-37 17 -25 33 -60 36 -79 5 -33 4 -34 -23 -32 -25 2 -29 -2 -29 -23 0 -14 -10
-40 -23 -57 l-23 -33 33 0 c18 0 40 -5 48 -10 13 -9 13 -12 -2 -21 -12 -6 -18
-22 -18 -44 0 -42 11 -44 39 -7 l22 27 -16 -39 c-8 -21 -15 -41 -15 -43 0 -3
-6 0 -14 6 -19 16 -32 -5 -16 -24 9 -11 10 -22 1 -42 -6 -16 -9 -39 -6 -52 2
-14 1 -29 -4 -35 -5 -6 -12 -33 -16 -61 -10 -75 -14 -82 -41 -89 -14 -4 -29
-18 -34 -32 -13 -34 -13 -127 0 -119 6 3 10 24 10 46 0 41 7 48 29 27 10 -11
12 -7 9 17 -2 22 2 30 16 33 28 6 34 -9 26 -63 -4 -27 -13 -86 -19 -130 -15
-96 -31 -145 -48 -145 -7 0 -13 5 -13 10 0 6 -4 10 -10 10 -5 0 -10 -25 -10
-55 0 -47 4 -60 26 -80 22 -21 25 -29 19 -64 -4 -23 -2 -41 4 -45 14 -9 -18
-76 -36 -76 -15 0 -18 -36 -4 -44 17 -11 41 6 47 33 8 35 52 111 65 111 5 0 3
-10 -5 -22 -7 -13 -19 -41 -26 -63 -16 -51 -37 -75 -67 -75 -19 0 -23 -5 -23
-33 0 -18 5 -38 12 -45 9 -9 9 -12 -1 -12 -10 0 -12 -10 -6 -42 15 -84 17
-104 19 -165 1 -51 5 -64 25 -81 26 -21 21 -42 -10 -42 -12 0 -19 7 -19 19 0
11 -5 23 -11 27 -8 5 -10 -10 -6 -52 4 -32 9 -86 12 -119 4 -33 11 -70 18 -83
9 -18 8 -25 -2 -32 -12 -7 -11 -15 3 -49 9 -23 16 -55 16 -71 0 -19 7 -33 20
-40 12 -7 22 -25 26 -51 4 -21 11 -42 15 -45 5 -3 7 -10 3 -15 -3 -5 -9 -7
-13 -4 -5 2 -22 0 -39 -4 -20 -6 -34 -5 -41 2 -15 15 -14 6 9 -109 11 -54 28
-106 37 -116 14 -16 15 -20 1 -35 -9 -10 -14 -23 -11 -29 2 -6 -3 -17 -11 -24
-14 -11 -14 -15 0 -42 8 -16 13 -37 9 -46 -3 -10 1 -54 9 -97 7 -44 11 -84 8
-89 -3 -5 -6 -30 -6 -56 -1 -40 1 -46 19 -46 15 1 19 -5 17 -23 -1 -13 3 -30
9 -37 9 -11 5 -14 -20 -14 -18 0 -31 5 -31 13 0 6 -5 4 -11 -6 -15 -26 -2 -57
25 -57 23 0 106 -86 106 -110 0 -6 -19 10 -41 37 -41 48 -74 71 -85 60 -3 -3
-1 -15 5 -26 6 -11 16 -44 21 -73 6 -29 18 -60 28 -68 9 -8 23 -28 31 -45 15
-33 24 -225 11 -225 -5 0 -10 12 -12 28 -2 21 -9 28 -30 30 -39 5 -35 -8 17
-64 47 -50 53 -62 33 -82 -17 -17 -24 -15 -52 14 -25 28 -46 25 -46 -5 0 -11
16 -42 35 -70 33 -48 44 -81 27 -81 -4 0 -13 5 -20 12 -6 6 -15 9 -18 5 -4 -3
13 -33 37 -66 24 -33 53 -75 64 -93 11 -19 40 -43 65 -55 140 -68 174 -83 191
-83 11 0 28 -6 40 -12 17 -11 22 -10 35 7 11 15 13 35 9 80 -8 74 6 133 40
165 14 13 25 28 25 34 0 6 -14 -4 -30 -21 -16 -18 -34 -33 -40 -33 -5 0 -10
19 -10 43 -1 23 -4 65 -7 92 -3 28 -5 61 -4 75 1 14 2 47 3 73 1 48 2 49 30
43 50 -10 105 -54 112 -90 7 -36 56 -92 56 -64 0 9 -6 21 -14 27 -8 6 -16 21
-19 33 -6 20 -4 20 20 -4 27 -27 44 -65 68 -153 14 -49 44 -85 70 -85 8 0 26
-19 42 -42 51 -74 90 -81 53 -8 -12 23 -19 51 -17 63 3 20 5 19 16 -8 26 -64
44 -95 52 -95 5 0 6 33 3 72 -5 65 -3 78 20 123 14 28 26 58 26 68 0 23 -44
109 -64 126 -9 8 -16 19 -16 27 0 17 96 7 125 -13 19 -14 18 -14 -14 -8 -26 6
-32 4 -29 -6 3 -8 -2 -19 -10 -25 -12 -8 2 -12 57 -18 51 -4 96 -17 159 -45
l87 -39 95 20 c110 24 207 65 216 92 4 11 -8 44 -29 85 -53 101 -55 120 -20
246 l5 20 -16 -20 c-8 -11 -18 -41 -22 -68 -8 -54 -15 -58 -34 -20 -28 62 -43
88 -54 98 -28 25 -46 68 -49 115 -2 47 -11 64 -19 39 -2 -6 -9 0 -16 15 -11
24 0 38 13 16 8 -13 45 -13 45 0 0 6 12 15 26 21 38 14 23 22 -20 11 -34 -10
-37 -8 -76 35 -40 42 -41 45 -23 59 17 15 17 15 -5 11 -15 -4 -27 2 -37 16
-13 19 -13 23 3 36 10 9 34 25 55 35 l38 20 52 -51 c77 -75 91 -80 131 -49 63
47 50 98 -44 177 l-52 43 7 50 c8 73 15 95 28 90 7 -2 13 -18 14 -36 3 -40 8
-44 28 -24 15 15 12 21 -8 17 -5 -1 -6 3 -2 9 10 17 28 11 62 -19 23 -22 34
-43 41 -83 7 -40 10 -45 11 -21 1 33 15 51 26 33 3 -5 11 -10 17 -10 6 0 3 9
-7 20 -16 17 -16 21 -2 35 20 19 41 19 57 0 13 -15 35 -11 25 6 -11 17 30 -4
53 -27 20 -21 41 -29 65 -25 12 2 47 -18 47 -27 0 -4 -16 -16 -35 -26 -19 -10
-37 -27 -40 -37 -3 -9 -13 -23 -21 -30 -12 -10 -21 -6 -54 26 -22 21 -42 37
-44 34 -2 -2 13 -26 34 -52 l39 -48 23 26 c13 15 42 40 65 56 51 35 97 37 170
7 68 -28 78 -19 86 73 3 39 8 74 11 76 3 3 47 -5 99 -18 57 -13 102 -19 113
-14 10 4 29 8 41 9 27 2 52 32 53 63 0 26 52 58 81 50 26 -7 34 11 15 32 -9 9
-19 31 -22 49 -3 17 -13 33 -20 36 -12 5 -12 9 -2 26 15 23 80 28 98 8 6 -7
21 -26 34 -41 28 -34 51 -32 74 5 15 25 15 28 -11 65 -33 47 -33 62 -6 115 37
73 9 205 -36 168 -8 -7 -33 -13 -55 -13 -22 0 -37 -3 -35 -7 6 -9 -25 -23 -33
-15 -3 3 0 11 6 17 7 7 12 16 12 20 0 13 -28 9 -37 -5 -4 -8 -23 -17 -42 -21
-34 -6 -34 -6 -16 14 21 24 20 25 -22 33 -22 4 -37 2 -48 -9 -11 -12 -25 -14
-48 -10 -18 4 -50 10 -72 13 -22 3 -45 10 -52 15 -20 16 -103 22 -103 7 0 -10
-3 -10 -12 -1 -9 9 -8 15 8 27 10 8 26 12 34 10 45 -13 174 -34 179 -29 3 4
-2 11 -13 18 -68 41 -84 57 -113 115 -17 35 -38 68 -45 72 -7 5 -39 9 -71 9
-46 0 -59 3 -63 18 -3 9 -11 29 -18 43 -12 24 -11 31 14 70 15 24 37 50 49 57
34 20 24 30 -26 26 -25 -2 -51 0 -57 5 -6 4 -18 10 -27 14 -12 4 -15 0 -12
-18 4 -17 15 -25 45 -31 l40 -9 -24 -27 -23 -28 -33 36 c-23 25 -39 34 -53 31
-10 -3 -22 -1 -25 4 -3 5 4 9 14 9 28 0 50 28 29 36 -9 3 -21 3 -27 -1 -5 -3
-10 0 -10 7 0 7 15 19 33 27 17 7 38 21 44 29 11 14 15 14 31 -1 36 -33 59
-12 26 24 -14 15 -13 17 13 14 67 -6 129 -18 142 -28 10 -9 17 -7 27 8 8 10
14 25 14 32 0 26 49 110 74 126 13 9 46 21 72 27 59 13 84 27 84 45 0 46 -162
265 -213 288 -18 8 -54 23 -80 33 -75 30 -145 94 -102 94 8 0 15 5 15 12 0 7
11 22 23 33 13 11 27 36 30 55 4 19 14 69 22 110 9 41 17 104 18 140 l2 65
-35 -2 c-84 -5 -160 -16 -160 -24 0 -17 -78 -57 -124 -64 -25 -4 -48 -11 -51
-15 -2 -4 -16 -5 -29 -3 -16 3 -32 -2 -47 -16 -13 -12 -28 -21 -33 -21 -6 0
-3 7 7 14 9 7 17 16 17 20 0 12 -23 6 -42 -11 -16 -14 -18 -15 -18 0 0 9 5 19
10 22 6 3 10 10 10 16 0 16 -21 10 -52 -16 -16 -14 -42 -25 -58 -25 -26 0 -29
3 -34 48 -9 64 -12 170 -6 174 97 72 139 124 122 154 -8 14 -10 12 -16 -10 -5
-21 -12 -26 -40 -26 -22 0 -47 -11 -77 -34 -32 -25 -53 -34 -76 -32 -39 2 -71
26 -35 26 15 0 22 6 22 20 0 10 9 24 21 30 11 6 18 17 16 23 -2 7 5 29 16 50
10 20 17 44 14 51 -4 11 3 16 25 18 39 4 51 28 13 28 -26 0 -26 0 -8 24 10 13
36 33 58 45 22 12 51 30 64 40 l25 19 -23 76 c-13 43 -20 87 -17 99 3 12 22
49 41 82 53 86 51 102 -9 126 -28 10 -96 24 -152 30 l-103 12 -67 -32 c-66
-31 -174 -61 -218 -61 -13 0 -49 20 -81 44 -61 48 -124 67 -151 46 -8 -7 -17
-11 -19 -8 -6 6 18 58 28 58 4 0 7 7 7 16 0 10 -6 14 -15 10 -18 -7 -26 21
-22 88 2 57 -19 77 -29 27 -4 -17 -13 -36 -20 -42 -18 -14 -17 -13 2 45 13 38
14 50 4 56 -9 6 -9 19 1 64 9 43 9 60 1 68 -13 13 -103 17 -124 6z m-493 -254
c37 -15 49 -15 88 1 12 5 17 3 17 -8 0 -22 -64 -48 -109 -46 -37 3 -39 4 -39
36 0 18 1 33 3 33 1 0 20 -7 40 -16z m702 -180 c-3 -3 -12 -4 -19 -1 -8 3 -5
6 6 6 11 1 17 -2 13 -5z m-57 -24 c-6 -11 -12 -20 -14 -20 -2 0 -2 9 1 20 3
11 9 20 15 20 5 0 4 -9 -2 -20z m165 -10 c10 -11 14 -20 8 -20 -5 0 -18 9 -28
20 -10 11 -14 20 -8 20 5 0 18 -9 28 -20z m-125 2 c0 -5 -7 -17 -16 -28 -8
-10 -14 -14 -11 -9 2 6 7 18 10 28 7 17 17 23 17 9z m100 -32 c0 -5 -4 -10 -9
-10 -6 0 -13 5 -16 10 -3 6 1 10 9 10 9 0 16 -4 16 -10z m105 -36 c-16 -8 -39
-13 -50 -10 -92 23 -92 24 -5 25 83 1 84 0 55 -15z m-565 -24 c-15 -28 -51
-40 -108 -38 -47 1 -47 1 -7 5 42 4 100 27 110 43 12 19 16 10 5 -10z m1101
-208 c13 -22 12 -26 -31 -63 -25 -21 -49 -37 -55 -35 -15 5 -9 65 8 84 8 9 18
35 22 57 10 59 17 63 30 19 6 -21 18 -50 26 -62z m-784 46 c-3 -8 -6 -5 -6 6
-1 11 2 17 5 13 3 -3 4 -12 1 -19z m84 -41 c-8 -8 -11 -7 -11 4 0 20 13 34 18
19 3 -7 -1 -17 -7 -23z m69 -19 c21 -35 17 -52 -11 -45 -16 4 -17 2 -8 -15 6
-11 8 -27 4 -36 -5 -13 -12 -5 -27 30 -35 81 0 135 42 66z m530 -8 c0 -5 -4
-10 -10 -10 -5 0 -10 5 -10 10 0 6 5 10 10 10 6 0 10 -4 10 -10z m-76 -195
c-6 -16 -24 -21 -24 -7 0 11 11 22 21 22 5 0 6 -7 3 -15z m-510 -188 c-3 -8
-12 -18 -20 -21 -11 -4 -10 0 3 18 20 26 27 28 17 3z m-61 -62 c-3 -9 -8 -14
-10 -11 -3 3 -2 9 2 15 9 16 15 13 8 -4z m1217 -140 c0 -15 -38 -45 -56 -45
-28 0 -26 30 2 41 22 9 54 11 54 4z m-240 -95 c0 -5 6 -10 13 -10 16 0 57 -44
57 -61 -1 -9 -4 -8 -11 4 -6 10 -29 31 -51 47 -25 18 -34 30 -25 30 10 0 17
-4 17 -10z m-1746 -588 c6 -10 -45 -85 -52 -77 -3 3 -1 15 5 28 6 12 14 30 17
40 6 18 21 23 30 9z m2106 -220 c0 -4 -4 -12 -9 -17 -5 -6 -11 -23 -13 -40 -3
-28 -6 -30 -38 -27 -50 4 -80 11 -80 20 0 4 14 16 30 25 17 10 30 15 30 12 0
-4 12 3 28 14 28 21 52 27 52 13z m-370 -182 c8 -5 11 -12 7 -16 -4 -4 -15 0
-24 9 -18 18 -8 23 17 7z m-1750 -42 c0 -5 -7 -8 -15 -8 -13 0 -35 28 -35 45
0 9 49 -28 50 -37z m-12 -94 c23 -37 22 -57 -3 -47 -8 3 -15 16 -15 28 0 13
-4 27 -10 30 -5 3 -10 10 -10 16 0 18 16 7 38 -27z m1839 -31 c45 -5 53 -9 64
-35 7 -18 8 -33 3 -38 -21 -21 -156 41 -162 74 -3 16 0 18 19 12 13 -4 47 -10
76 -13z m-1877 -217 c0 -8 -4 -17 -9 -21 -12 -7 -24 12 -16 25 9 15 25 12 25
-4z m47 -80 c-5 -16 -27 -18 -27 -3 0 8 -7 18 -16 21 -8 3 -12 10 -9 16 7 12
56 -20 52 -34z m2063 -46 c0 -5 -7 -10 -16 -10 -8 0 -12 5 -9 10 3 6 10 10 16
10 5 0 9 -4 9 -10z m290 6 c0 -2 -7 -9 -15 -16 -13 -11 -14 -10 -9 4 5 14 24
23 24 12z m-2356 -42 c4 -15 5 -29 2 -32 -10 -9 -36 20 -36 39 0 29 27 23 34
-7z m2082 -35 c-32 -38 -63 -125 -59 -166 2 -27 -38 9 -60 55 -33 65 -62 150
-54 158 3 3 36 -5 74 -20 l68 -26 30 30 c43 43 44 18 1 -31z m-2046 41 c0 -5
-5 -10 -11 -10 -5 0 -7 5 -4 10 3 6 8 10 11 10 2 0 4 -4 4 -10z m1830 -21 c0
-6 -4 -7 -10 -4 -5 3 -10 11 -10 16 0 6 5 7 10 4 6 -3 10 -11 10 -16z m-500
-239 c0 -5 -4 -10 -10 -10 -5 0 -10 5 -10 10 0 6 5 10 10 10 6 0 10 -4 10 -10z
m30 6 c0 -3 -4 -8 -10 -11 -5 -3 -10 -1 -10 4 0 6 5 11 10 11 6 0 10 -2 10 -4z
m-23 -63 c-3 -10 -5 -4 -5 12 0 17 2 24 5 18 2 -7 2 -21 0 -30z m1041 -29 c13
-20 21 -38 18 -41 -8 -9 -37 18 -30 28 3 5 -2 12 -10 15 -9 3 -16 12 -16 20 0
24 14 15 38 -22z m-1018 -53 c-1 -25 -1 -25 -15 -7 -19 25 -19 33 0 33 10 0
15 -10 15 -26z m-60 -71 c0 -5 -5 -10 -11 -10 -5 0 -7 5 -4 10 3 6 8 10 11 10
2 0 4 -4 4 -10z m-1334 -68 c13 -33 8 -53 -12 -45 -8 3 -14 19 -14 39 0 41 12
44 26 6z m1574 8 c0 -5 -4 -10 -9 -10 -6 0 -13 5 -16 10 -3 6 1 10 9 10 9 0
16 -4 16 -10z m-626 -297 c-12 -25 -18 -56 -16 -90 1 -29 -3 -55 -8 -58 -19
-12 -11 101 11 150 11 25 23 44 26 41 3 -3 -3 -22 -13 -43z m174 13 c10 -19
-6 -25 -42 -15 -29 8 -41 8 -46 -1 -6 -9 -9 -9 -12 1 -4 11 -9 12 -26 2 -17
-10 -19 -9 -15 5 3 14 16 17 71 16 37 -1 68 -4 70 -8z m-213 -215 c-3 -16 -13
-36 -22 -43 -9 -7 -14 -8 -12 -3 2 6 11 27 18 47 17 43 26 43 16 -1z m-53
-110 c-24 -16 -61 -110 -63 -161 l-1 -35 -9 33 c-13 43 2 95 43 157 25 38 34
45 36 31 2 -10 0 -21 -6 -25z m-695 -161 c64 -73 63 -96 -2 -26 -47 52 -76
103 -74 133 1 11 5 6 11 -13 6 -18 35 -60 65 -94z m132 -96 c38 -11 50 -19 43
-26 -8 -8 -18 -6 -37 6 -14 9 -29 14 -34 12 -5 -3 -14 1 -21 9 -15 19 -15 19
49 -1z m436 -334 c3 -5 1 -10 -4 -10 -6 0 -11 5 -11 10 0 6 2 10 4 10 3 0 8
-4 11 -10z m52 -12 c-3 -8 -6 -5 -6 6 -1 11 2 17 5 13 3 -3 4 -12 1 -19z"/>
<path d="M87 4432 c3 -12 9 -25 14 -28 14 -8 11 10 -6 32 -13 18 -14 18 -8 -4z"/>
<path d="M236 4371 c-4 -7 -5 -15 -2 -18 9 -9 19 4 14 18 -4 11 -6 11 -12 0z"/>
<path d="M10 4320 c-18 -12 -2 -12 25 0 13 6 15 9 5 9 -8 0 -22 -4 -30 -9z"/>
<path d="M93 4303 c9 -9 19 -14 23 -11 10 10 -6 28 -24 28 -15 0 -15 -1 1 -17z"/>
<path d="M2500 4122 l-23 -19 23 -31 c28 -38 33 -39 47 -9 21 43 23 57 8 57
-8 0 -15 5 -15 10 0 15 -15 12 -40 -8z"/>
<path d="M1641 4116 c-7 -8 -8 -17 -3 -20 6 -3 13 1 16 10 9 23 2 28 -13 10z"/>
<path d="M2112 4092 c-18 -17 -32 -39 -32 -49 0 -18 -63 -63 -88 -63 -20 0
-81 -45 -82 -61 0 -8 20 -24 48 -37 48 -23 80 -40 144 -79 47 -29 92 -29 119
-2 14 14 29 19 45 16 13 -2 24 0 24 4 0 5 -5 9 -11 9 -7 0 -9 10 -4 27 5 23 4
25 -9 14 -15 -12 -36 -8 -36 8 0 4 15 14 33 22 33 15 34 14 72 -23 42 -42 68
-39 47 6 -9 21 -7 28 13 50 28 30 44 105 23 107 -7 1 -17 2 -23 4 -5 1 -26 3
-45 4 -27 1 -31 4 -20 11 12 8 9 10 -12 10 -16 0 -27 5 -25 12 2 11 -38 23
-114 35 -29 4 -40 0 -67 -25z"/>
<path d="M2701 4056 c1 -25 -4 -52 -11 -61 -10 -12 -10 -15 3 -15 8 0 20 7 27
15 8 9 21 13 36 9 18 -5 24 -2 24 10 0 9 -8 16 -19 16 -11 0 -23 12 -31 30
-20 47 -30 46 -29 -4z"/>
<path d="M1601 4003 c-47 -46 -48 -59 0 -19 15 13 33 26 40 28 6 2 10 10 8 18
-3 11 -17 2 -48 -27z"/>
<path d="M1487 3905 c-35 -34 -46 -55 -29 -55 14 0 74 68 70 80 -2 6 -20 -4
-41 -25z"/>
<path d="M2664 3805 c-4 -9 0 -30 7 -48 8 -18 15 -72 15 -122 1 -49 4 -103 6
-120 3 -16 6 -50 6 -74 2 -39 4 -42 18 -30 11 9 14 23 11 44 -2 16 -2 37 2 46
5 13 11 12 46 -7 31 -18 36 -24 22 -28 -9 -4 -24 -8 -33 -11 -8 -3 -14 -13
-12 -22 3 -14 12 -17 45 -15 34 3 44 0 55 -17 7 -12 18 -21 25 -21 6 0 19 -8
29 -17 9 -10 27 -16 39 -15 17 2 30 -8 51 -42 18 -28 37 -46 49 -46 11 0 29
-12 39 -27 19 -26 19 -26 -3 -44 -12 -10 -21 -27 -19 -37 2 -10 -3 -27 -11
-36 -12 -14 -12 -22 -3 -36 7 -12 8 -21 2 -25 -16 -10 -11 -25 8 -25 9 0 25
11 34 24 17 23 17 24 -5 18 -20 -5 -21 -4 -8 12 16 19 78 15 144 -12 30 -11
44 -12 63 -3 14 6 33 11 43 11 10 0 26 9 35 19 17 18 16 22 -20 72 -20 30 -47
61 -58 71 l-21 17 21 1 c12 0 33 -9 47 -20 14 -11 31 -20 39 -20 7 0 28 -9 46
-20 45 -28 69 -25 103 11 19 20 35 29 45 25 13 -5 15 -2 11 16 -4 12 -1 28 5
35 7 9 7 13 -1 13 -6 0 -11 -4 -11 -10 0 -5 -6 -10 -13 -10 -8 0 -14 7 -14 15
0 8 7 15 15 15 8 0 20 7 27 16 10 14 14 13 38 -16 17 -19 33 -30 42 -26 17 6
20 22 5 31 -15 9 -12 21 15 53 13 16 27 48 31 71 l7 41 -69 0 c-47 0 -64 3
-54 10 22 14 6 22 -53 26 -65 5 -85 -8 -125 -80 -19 -34 -39 -56 -67 -70 -22
-11 -47 -28 -56 -38 -9 -10 -21 -18 -26 -18 -16 0 -95 87 -85 94 6 3 13 2 17
-4 8 -13 55 -13 55 0 0 15 21 12 42 -7 10 -9 18 -11 18 -5 0 6 -8 16 -19 21
-13 7 -20 26 -24 65 -7 71 -27 99 -95 136 -58 31 -109 38 -141 19 -37 -24 -85
-2 -160 71 -39 39 -77 70 -84 70 -7 0 -33 11 -59 25 -55 29 -66 31 -74 10z
m592 -358 c-4 -23 -23 -25 -61 -4 -18 9 -17 11 15 22 42 15 51 11 46 -18z
m-143 -8 c23 -26 14 -38 -12 -15 -10 9 -22 16 -27 15 -18 -3 -25 1 -19 11 10
17 40 11 58 -11z m47 -49 c0 -5 -2 -10 -4 -10 -3 0 -8 5 -11 10 -3 6 -1 10 4
10 6 0 11 -4 11 -10z m-80 -10 c0 -5 -2 -10 -4 -10 -3 0 -8 5 -11 10 -3 6 -1
10 4 10 6 0 11 -4 11 -10z m80 -22 c0 -5 7 -8 15 -8 8 0 15 -4 15 -9 0 -14
-56 10 -68 29 -9 16 -8 16 14 6 13 -6 24 -14 24 -18z"/>
<path d="M2802 3358 c-14 -14 -16 -28 -2 -28 5 0 14 9 20 20 12 22 1 27 -18 8z"/>
<path d="M2820 3290 c-34 -28 -34 -29 -11 -30 15 0 35 -13 52 -32 l28 -33 1
63 c0 73 -13 80 -70 32z"/>
<path d="M2730 3290 c0 -6 7 -10 15 -10 8 0 15 2 15 4 0 2 -7 6 -15 10 -8 3
-15 1 -15 -4z"/>
<path d="M4230 3245 c0 -9 8 -27 17 -41 10 -16 18 -51 19 -89 l3 -62 -38 -12
c-21 -6 -55 -11 -75 -11 -20 0 -36 -4 -36 -10 0 -5 -10 -18 -21 -29 -38 -36
-5 -67 41 -39 15 10 27 10 55 -1 33 -12 75 -8 75 7 0 4 -5 14 -10 22 -8 12
-10 12 -10 -5 0 -19 -1 -18 -22 3 -20 19 -21 24 -8 32 18 12 59 4 82 -17 14
-13 17 -12 22 5 4 11 16 22 27 25 17 5 19 9 9 26 -6 12 -24 28 -40 36 -17 9
-30 20 -30 26 0 14 30 -3 69 -40 18 -17 39 -31 47 -31 8 0 14 -5 14 -11 0 -5
8 -9 18 -8 23 3 52 -10 78 -33 12 -11 28 -18 36 -16 7 2 26 -7 41 -19 27 -21
27 -22 9 -32 -25 -13 -33 -53 -15 -77 7 -10 14 -14 14 -8 1 5 2 16 3 24 0 8
12 16 26 18 32 4 50 28 50 64 0 18 5 28 15 28 24 0 17 18 -22 57 -31 29 -39
33 -41 19 -3 -13 -10 -15 -38 -10 -26 5 -35 2 -40 -10 -3 -9 -10 -16 -15 -16
-4 0 -6 6 -3 14 3 8 -2 26 -11 40 -9 14 -14 30 -10 36 10 17 49 11 68 -10 21
-25 37 -26 37 -2 0 9 -17 27 -40 40 -50 28 -45 52 12 52 35 0 40 -3 35 -19 -3
-14 0 -17 14 -14 41 11 11 47 -54 64 -40 11 -48 10 -79 -9 -47 -29 -97 -29
-123 1 -27 32 -51 43 -107 51 -40 6 -48 5 -48 -9z m270 -185 c0 -5 -2 -10 -4
-10 -3 0 -8 5 -11 10 -3 6 -1 10 4 10 6 0 11 -4 11 -10z"/>
<path d="M4577 3163 c-12 -11 -8 -23 8 -23 8 0 15 7 15 15 0 16 -12 20 -23 8z"/>
<path d="M2810 3041 c0 -5 16 -15 34 -22 35 -13 40 -35 6 -24 -13 4 -20 0 -24
-13 -7 -19 -48 -45 -78 -48 -17 -1 -59 -31 -104 -71 -14 -13 -27 -23 -29 -23
-12 0 -4 39 10 50 18 15 19 30 2 30 -15 0 -79 -113 -83 -146 -1 -12 -5 -35 -8
-51 -7 -31 11 -55 49 -66 11 -3 58 -19 105 -36 100 -36 128 -38 172 -11 l33
21 -51 -7 c-50 -6 -51 -6 -57 22 -4 22 0 33 16 46 12 10 30 18 39 18 9 0 18 4
20 10 2 5 18 12 36 16 30 6 32 5 32 -20 0 -15 -7 -41 -16 -57 -15 -30 -15 -30
5 -19 14 7 21 21 21 39 0 32 31 77 59 86 25 8 41 47 41 100 0 48 24 75 66 75
14 0 30 12 42 32 l21 32 -37 13 c-42 14 -62 11 -62 -11 0 -9 -9 -20 -21 -26
-17 -9 -26 -7 -54 14 -56 43 -185 75 -185 47z m77 -266 c-29 -26 -47 -32 -47
-16 0 12 42 40 60 40 10 0 5 -8 -13 -24z m73 -5 c-14 -11 -32 -20 -40 -20 -8
0 1 11 20 24 40 28 57 24 20 -4z m-185 -120 c4 -6 -7 -10 -27 -9 -27 0 -30 2
-13 9 27 12 33 12 40 0z"/>
<path d="M2670 2975 c-18 -19 -32 -37 -29 -39 6 -7 69 52 69 65 0 14 -3 12
-40 -26z"/>
<path d="M4405 2949 c-4 -6 -5 -11 -4 -12 2 -1 15 -8 27 -15 28 -16 36 -11 27
17 -7 22 -39 29 -50 10z"/>
<path d="M3051 2884 c0 -11 3 -14 6 -6 3 7 2 16 -1 19 -3 4 -6 -2 -5 -13z"/>
<path d="M3695 2845 c-27 -14 -55 -25 -61 -25 -6 0 -17 -6 -23 -13 -13 -17 27
-57 75 -76 17 -7 37 -24 44 -39 7 -15 16 -34 19 -41 4 -8 19 -23 32 -33 21
-16 29 -17 57 -7 19 6 31 17 29 23 -4 9 12 11 56 8 l60 -5 -6 32 c-4 18 -16
44 -27 58 -11 15 -18 34 -15 44 10 31 -15 31 -33 0 -19 -35 -25 -37 -42 -16
-7 8 -18 15 -25 15 -16 0 -82 75 -77 89 5 16 -7 13 -63 -14z"/>
<path d="M3780 2861 c0 -6 5 -13 10 -16 6 -3 10 -15 10 -26 0 -22 4 -23 32 -8
20 11 20 12 -8 35 -31 25 -44 29 -44 15z"/>
<path d="M2100 2571 c0 -12 37 -24 50 -16 20 12 10 25 -20 25 -16 0 -30 -4
-30 -9z"/>
<path d="M2850 1815 c0 -4 7 -20 16 -37 10 -19 14 -42 10 -62 l-6 -31 26 33
c14 17 32 32 40 32 8 0 14 6 14 14 0 9 -7 12 -20 9 -14 -4 -27 3 -41 21 -19
24 -39 34 -39 21z"/>
<path d="M2565 1700 c-4 -6 7 -10 27 -9 27 0 30 2 13 9 -27 12 -33 12 -40 0z"/>
<path d="M3165 1593 c32 -8 45 -24 45 -55 0 -26 3 -29 23 -22 36 11 37 25 2
55 -21 19 -43 29 -61 28 -21 -1 -24 -3 -9 -6z"/>
<path d="M25 1581 c-3 -5 -1 -12 5 -16 5 -3 10 1 10 9 0 18 -6 21 -15 7z"/>
<path d="M3065 1560 c-33 -16 -68 -30 -78 -30 -56 0 3 -79 76 -102 40 -12 67
-40 67 -70 0 -9 14 -33 31 -53 32 -36 49 -40 107 -29 27 5 30 9 22 25 -10 17
-6 18 66 13 l76 -5 -7 37 c-3 21 -18 52 -32 71 -18 23 -23 40 -19 57 10 39
-10 39 -42 0 -27 -32 -31 -34 -45 -20 -9 9 -21 16 -27 16 -20 0 -70 44 -70 62
0 10 -7 18 -15 18 -8 0 -19 9 -25 20 -14 25 -13 25 -85 -10z"/>
<path d="M1645 1230 c3 -5 8 -10 11 -10 2 0 4 5 4 10 0 6 -5 10 -11 10 -5 0
-7 -4 -4 -10z"/>
<path d="M1544 936 c20 -18 36 -38 36 -45 0 -6 5 -11 10 -11 25 0 7 40 -30 64
-53 35 -59 33 -16 -8z"/>
<path d="M8 485 c5 -29 14 -31 32 -10 15 18 13 20 -16 29 -19 6 -21 3 -16 -19z"/>
<path d="M630 345 c0 -8 5 -15 10 -15 6 0 10 7 10 15 0 8 -4 15 -10 15 -5 0
-10 -7 -10 -15z"/>
</g>
</svg>
